<svg xmlns="http://www.w3.org/2000/svg" viewBox="0 0 64 64" role="img" aria-label="TypoFind favicon">
  <rect width="64" height="64" rx="12" fill="#f7f3ea"/>
  <rect x="8" y="8" width="48" height="48" rx="6" fill="none" stroke="#1f1b16" stroke-width="3"/>
  <path d="M15 18h28v7H33v24h-8V25H15z" fill="#1f1b16"/>
  <path d="M40 38c4.8 0 8.5 3.6 8.5 8.3 0 4.8-3.7 8.4-8.5 8.4s-8.5-3.6-8.5-8.4c0-4.7 3.7-8.3 8.5-8.3zm0 4.2a4.1 4.1 0 1 0 0 8.2 4.1 4.1 0 0 0 0-8.2z" fill="#8d2f22"/>
  <path d="M47 52l6 6" stroke="#8d2f22" stroke-width="4" stroke-linecap="round"/>
</svg>
